# xmcd
#
# Track frame offsets: 
#        150
#        17048
#        36874
#        50622
#        70394
#        92116
#        118302
#        137807
#        151709
#        169447
#        191782
#
# Disc length: 2771 seconds
#
# Revision: 0
# Processed by: cddbd v1.5.2PL0 Copyright (c) Steve Scherf et al.
# Submitted via: ExactAudioCopy v0.99pb5
#
DISCID=9f0ad10b
DTITLE=Chris Bonoli - Out For The Night
DYEAR=2003
DGENRE=Blues
TTITLE0=Who
TTITLE1=I'm Your 63 (43) Year Old Mama
TTITLE2=Mind Your Own Business
TTITLE3=It Seemed Like Such A Good Idea At The Time
TTITLE4=Will I Ever Know?
TTITLE5=I Don't Need To Know
TTITLE6=The Lemonmade Song
TTITLE7=Livin' On Lies
TTITLE8=Take Good Care Of Your Bodyu ( It Needs To Last ´Till My Husba
TTITLE8=nd Dies)
TTITLE9=Bad Deal Blues
TTITLE10=You Otta Know
EXTD=
EXTT0=
EXTT1=
EXTT2=
EXTT3=
EXTT4=
EXTT5=
EXTT6=
EXTT7=
EXTT8=
EXTT9=
EXTT10=
PLAYORDER=
